<svg width="1280" height="720" viewBox="0 0 1280 720" xmlns="http://www.w3.org/2000/svg">
<rect width="1280" height="720" fill="#1a1a2e"/>

<!-- Title -->
<text x="640" y="40" text-anchor="middle" font-family="system-ui,-apple-system,sans-serif" font-size="20" font-weight="500" fill="#e8e6df">AceForge architecture</text>

<!-- ═══ Row 1: Pattern Capture ═══ -->
<rect x="80" y="70" width="1120" height="100" rx="12" fill="#2a2a4a" stroke="#534AB7" stroke-width="0.5" opacity="0.4"/>
<text x="640" y="95" text-anchor="middle" font-family="system-ui,sans-serif" font-size="14" font-weight="500" fill="#AFA9EC">Pattern capture layer</text>

<rect x="120" y="110" width="160" height="44" rx="8" fill="#26215C" stroke="#7F77DD" stroke-width="0.5"/>
<text x="200" y="137" text-anchor="middle" font-family="system-ui,sans-serif" font-size="12" font-weight="500" fill="#CECBF6">after_tool_call</text>

<rect x="320" y="110" width="160" height="44" rx="8" fill="#26215C" stroke="#7F77DD" stroke-width="0.5"/>
<text x="400" y="137" text-anchor="middle" font-family="system-ui,sans-serif" font-size="12" font-weight="500" fill="#CECBF6">message_received</text>

<rect x="520" y="110" width="160" height="44" rx="8" fill="#26215C" stroke="#7F77DD" stroke-width="0.5"/>
<text x="600" y="137" text-anchor="middle" font-family="system-ui,sans-serif" font-size="12" font-weight="500" fill="#CECBF6">agent_end</text>

<rect x="720" y="110" width="160" height="44" rx="8" fill="#04342C" stroke="#5DCAA5" stroke-width="0.5"/>
<text x="800" y="137" text-anchor="middle" font-family="system-ui,sans-serif" font-size="12" font-weight="500" fill="#9FE1CB">patterns.jsonl</text>

<rect x="920" y="110" width="240" height="44" rx="8" fill="#04342C" stroke="#5DCAA5" stroke-width="0.5"/>
<text x="1040" y="130" text-anchor="middle" font-family="system-ui,sans-serif" font-size="11" font-weight="500" fill="#9FE1CB">Traces: tool, args, result,</text>
<text x="1040" y="147" text-anchor="middle" font-family="system-ui,sans-serif" font-size="11" fill="#5DCAA5">success, session, corrections</text>

<!-- Arrows row 1 -->
<line x1="280" y1="132" x2="318" y2="132" stroke="#5DCAA5" stroke-width="1" opacity="0.5"/>
<line x1="480" y1="132" x2="518" y2="132" stroke="#5DCAA5" stroke-width="1" opacity="0.5"/>
<line x1="680" y1="132" x2="718" y2="132" stroke="#5DCAA5" stroke-width="1" opacity="0.5"/>
<line x1="880" y1="132" x2="918" y2="132" stroke="#5DCAA5" stroke-width="1" opacity="0.5"/>

<!-- ═══ Arrow down to Row 2 ═══ -->
<line x1="640" y1="170" x2="640" y2="200" stroke="#7F77DD" stroke-width="1.5" opacity="0.6"/>
<polygon points="633,197 640,207 647,197" fill="#7F77DD" opacity="0.6"/>

<!-- ═══ Row 2: Analysis + Candidate Detection ═══ -->
<rect x="280" y="210" width="300" height="80" rx="12" fill="#26215C" stroke="#7F77DD" stroke-width="0.5"/>
<text x="430" y="238" text-anchor="middle" font-family="system-ui,sans-serif" font-size="14" font-weight="500" fill="#CECBF6">analyze.ts</text>
<text x="430" y="258" text-anchor="middle" font-family="system-ui,sans-serif" font-size="11" fill="#AFA9EC">Group by tool + args prefix</text>
<text x="430" y="275" text-anchor="middle" font-family="system-ui,sans-serif" font-size="11" fill="#AFA9EC">Threshold: 3x (5x at 20+ skills)</text>

<rect x="700" y="210" width="300" height="80" rx="12" fill="#26215C" stroke="#7F77DD" stroke-width="0.5"/>
<text x="850" y="238" text-anchor="middle" font-family="system-ui,sans-serif" font-size="14" font-weight="500" fill="#CECBF6">candidates.jsonl</text>
<text x="850" y="258" text-anchor="middle" font-family="system-ui,sans-serif" font-size="11" fill="#AFA9EC">Tool, occurrences, success rate</text>
<text x="850" y="275" text-anchor="middle" font-family="system-ui,sans-serif" font-size="11" fill="#AFA9EC">Distinct sessions, first/last seen</text>

<line x1="580" y1="250" x2="698" y2="250" stroke="#5DCAA5" stroke-width="1.5" opacity="0.5"/>
<polygon points="695,244 705,250 695,256" fill="#5DCAA5" opacity="0.5"/>

<!-- ═══ Arrow down to Row 3 ═══ -->
<line x1="640" y1="290" x2="640" y2="320" stroke="#7F77DD" stroke-width="1.5" opacity="0.6"/>
<polygon points="633,317 640,327 647,317" fill="#7F77DD" opacity="0.6"/>

<!-- ═══ Row 3: Dual-Model LLM Pipeline ═══ -->
<rect x="120" y="330" width="1040" height="120" rx="12" fill="none" stroke="#EF9F27" stroke-width="1" stroke-dasharray="6 3" opacity="0.4"/>
<text x="640" y="352" text-anchor="middle" font-family="system-ui,sans-serif" font-size="13" font-weight="500" fill="#EF9F27" opacity="0.7">Dual-model LLM pipeline (provider-agnostic)</text>

<rect x="160" y="365" width="280" height="70" rx="10" fill="#412402" stroke="#EF9F27" stroke-width="0.5"/>
<text x="300" y="392" text-anchor="middle" font-family="system-ui,sans-serif" font-size="14" font-weight="500" fill="#FAC775">Generator</text>
<text x="300" y="412" text-anchor="middle" font-family="system-ui,sans-serif" font-size="11" fill="#EF9F27">Default: MiniMax M2.7</text>
<text x="300" y="427" text-anchor="middle" font-family="system-ui,sans-serif" font-size="10" fill="#BA7517">Any OpenAI-compatible /chat/completions</text>

<rect x="500" y="365" width="280" height="70" rx="10" fill="#26215C" stroke="#AFA9EC" stroke-width="0.5"/>
<text x="640" y="392" text-anchor="middle" font-family="system-ui,sans-serif" font-size="14" font-weight="500" fill="#CECBF6">Reviewer</text>
<text x="640" y="412" text-anchor="middle" font-family="system-ui,sans-serif" font-size="11" fill="#AFA9EC">Default: DeepSeek Reasoner</text>
<text x="640" y="427" text-anchor="middle" font-family="system-ui,sans-serif" font-size="10" fill="#7F77DD">APPROVE / REVISE / REJECT with CoT</text>

<rect x="840" y="365" width="280" height="70" rx="10" fill="#4A1B0C" stroke="#F0997B" stroke-width="0.5"/>
<text x="980" y="392" text-anchor="middle" font-family="system-ui,sans-serif" font-size="14" font-weight="500" fill="#F5C4B3">Template fallback</text>
<text x="980" y="412" text-anchor="middle" font-family="system-ui,sans-serif" font-size="11" fill="#F0997B">generator.ts</text>
<text x="980" y="427" text-anchor="middle" font-family="system-ui,sans-serif" font-size="10" fill="#D85A30">Used when LLM APIs fail</text>

<!-- Arrows between LLM boxes -->
<line x1="440" y1="400" x2="498" y2="400" stroke="#EF9F27" stroke-width="1.5" opacity="0.5"/>
<polygon points="495,394 505,400 495,406" fill="#EF9F27" opacity="0.5"/>
<line x1="780" y1="400" x2="838" y2="400" stroke="#F0997B" stroke-width="1" opacity="0.3" stroke-dasharray="4 3"/>
<polygon points="835,394 845,400 835,406" fill="#F0997B" opacity="0.3"/>

<!-- ═══ Arrow down to Row 4 ═══ -->
<line x1="640" y1="450" x2="640" y2="480" stroke="#7F77DD" stroke-width="1.5" opacity="0.6"/>
<polygon points="633,477 640,487 647,477" fill="#7F77DD" opacity="0.6"/>

<!-- ═══ Row 4: Security + Approval + Deploy ═══ -->
<rect x="140" y="490" width="220" height="60" rx="10" fill="#501313" stroke="#F09595" stroke-width="0.5"/>
<text x="250" y="515" text-anchor="middle" font-family="system-ui,sans-serif" font-size="13" font-weight="500" fill="#F7C1C1">validator.ts</text>
<text x="250" y="533" text-anchor="middle" font-family="system-ui,sans-serif" font-size="10" fill="#F09595">Injection, credentials, paths, similarity</text>

<rect x="410" y="490" width="220" height="60" rx="10" fill="#085041" stroke="#5DCAA5" stroke-width="0.5"/>
<text x="520" y="515" text-anchor="middle" font-family="system-ui,sans-serif" font-size="13" font-weight="500" fill="#9FE1CB">Human approval</text>
<text x="520" y="533" text-anchor="middle" font-family="system-ui,sans-serif" font-size="10" fill="#5DCAA5">Telegram / Slack / log notification</text>

<rect x="680" y="490" width="220" height="60" rx="10" fill="#04342C" stroke="#1D9E75" stroke-width="1"/>
<text x="790" y="515" text-anchor="middle" font-family="system-ui,sans-serif" font-size="13" font-weight="500" fill="#9FE1CB">Deploy skill</text>
<text x="790" y="533" text-anchor="middle" font-family="system-ui,sans-serif" font-size="10" fill="#5DCAA5">~/.openclaw/workspace/skills/</text>

<rect x="950" y="490" width="220" height="60" rx="10" fill="#26215C" stroke="#7F77DD" stroke-width="0.5"/>
<text x="1060" y="515" text-anchor="middle" font-family="system-ui,sans-serif" font-size="13" font-weight="500" fill="#CECBF6">lifecycle.ts</text>
<text x="1060" y="533" text-anchor="middle" font-family="system-ui,sans-serif" font-size="10" fill="#AFA9EC">Quality, health, effectiveness</text>

<!-- Arrows row 4 -->
<line x1="360" y1="520" x2="408" y2="520" stroke="#5DCAA5" stroke-width="1.5" opacity="0.5"/>
<polygon points="405,514 415,520 405,526" fill="#5DCAA5" opacity="0.5"/>
<line x1="630" y1="520" x2="678" y2="520" stroke="#1D9E75" stroke-width="1.5" opacity="0.6"/>
<polygon points="675,514 685,520 675,526" fill="#1D9E75" opacity="0.6"/>
<line x1="900" y1="520" x2="948" y2="520" stroke="#7F77DD" stroke-width="1" opacity="0.4"/>
<polygon points="945,514 955,520 945,526" fill="#7F77DD" opacity="0.4"/>

<!-- ═══ Arrow down to Row 5 ═══ -->
<line x1="640" y1="550" x2="640" y2="580" stroke="#7F77DD" stroke-width="1.5" opacity="0.6"/>
<polygon points="633,577 640,587 647,577" fill="#7F77DD" opacity="0.6"/>

<!-- ═══ Row 5: Evolution + Context Injection ═══ -->
<rect x="200" y="590" width="300" height="70" rx="12" fill="#412402" stroke="#EF9F27" stroke-width="0.5"/>
<text x="350" y="618" text-anchor="middle" font-family="system-ui,sans-serif" font-size="14" font-weight="500" fill="#FAC775">Skill evolution</text>
<text x="350" y="638" text-anchor="middle" font-family="system-ui,sans-serif" font-size="11" fill="#EF9F27">50+ new traces -> revise (not rewrite)</text>
<text x="350" y="653" text-anchor="middle" font-family="system-ui,sans-serif" font-size="10" fill="#BA7517">reviseSkillWithLLm()</text>

<rect x="560" y="590" width="260" height="70" rx="12" fill="#04342C" stroke="#5DCAA5" stroke-width="1"/>
<text x="690" y="618" text-anchor="middle" font-family="system-ui,sans-serif" font-size="14" font-weight="500" fill="#9FE1CB">before_prompt_build</text>
<text x="690" y="638" text-anchor="middle" font-family="system-ui,sans-serif" font-size="11" fill="#5DCAA5">Metadata-only skill injection</text>
<text x="690" y="653" text-anchor="middle" font-family="system-ui,sans-serif" font-size="10" fill="#1D9E75">skill/index.ts</text>

<rect x="880" y="590" width="240" height="70" rx="12" fill="#26215C" stroke="#7F77DD" stroke-width="0.5"/>
<text x="1000" y="618" text-anchor="middle" font-family="system-ui,sans-serif" font-size="14" font-weight="500" fill="#CECBF6">Cron reflection</text>
<text x="1000" y="638" text-anchor="middle" font-family="system-ui,sans-serif" font-size="11" fill="#AFA9EC">Every 6 hours autonomous</text>
<text x="1000" y="653" text-anchor="middle" font-family="system-ui,sans-serif" font-size="10" fill="#7F77DD">forge_reflect</text>

<!-- Evolution feedback arrow (curved back to pipeline) -->
<path d="M350 590 Q350 560 300 540 Q200 500 160 440 Q140 410 160 380 Q170 365 200 365" fill="none" stroke="#EF9F27" stroke-width="1" stroke-dasharray="4 3" opacity="0.4"/>
<text x="110" y="465" font-family="system-ui,sans-serif" font-size="9" fill="#EF9F27" opacity="0.5" transform="rotate(-90,110,465)">revision loop</text>

<!-- Cron arrow back to analysis -->
<path d="M1000 590 Q1000 560 1060 540 Q1120 500 1120 400 Q1120 320 1060 300 Q1000 280 850 290" fill="none" stroke="#7F77DD" stroke-width="1" stroke-dasharray="4 3" opacity="0.3"/>

<!-- ═══ Side: External connections ═══ -->
<!-- OpenViking -->
<rect x="20" y="210" width="160" height="50" rx="8" fill="#2a2a4a" stroke="#534AB7" stroke-width="0.5" opacity="0.6"/>
<text x="100" y="232" text-anchor="middle" font-family="system-ui,sans-serif" font-size="11" font-weight="500" fill="#AFA9EC">OpenViking</text>
<text x="100" y="248" text-anchor="middle" font-family="system-ui,sans-serif" font-size="9" fill="#7F77DD">127.0.0.1:1933</text>
<line x1="180" y1="235" x2="278" y2="250" stroke="#534AB7" stroke-width="0.5" opacity="0.3" stroke-dasharray="3 3"/>

<!-- Notify channel -->
<rect x="20" y="500" width="100" height="40" rx="8" fill="#085041" stroke="#5DCAA5" stroke-width="0.5" opacity="0.5"/>
<text x="70" y="524" text-anchor="middle" font-family="system-ui,sans-serif" font-size="10" font-weight="500" fill="#9FE1CB">notify.ts</text>
<line x1="120" y1="520" x2="138" y2="520" stroke="#5DCAA5" stroke-width="0.5" opacity="0.4"/>

<!-- Legend -->
<rect x="40" y="680" width="12" height="12" rx="2" fill="#26215C" stroke="#7F77DD" stroke-width="0.5"/>
<text x="60" y="691" font-family="system-ui,sans-serif" font-size="10" fill="#9c9a92">Core modules</text>
<rect x="180" y="680" width="12" height="12" rx="2" fill="#412402" stroke="#EF9F27" stroke-width="0.5"/>
<text x="200" y="691" font-family="system-ui,sans-serif" font-size="10" fill="#9c9a92">LLM pipeline</text>
<rect x="320" y="680" width="12" height="12" rx="2" fill="#04342C" stroke="#5DCAA5" stroke-width="0.5"/>
<text x="340" y="691" font-family="system-ui,sans-serif" font-size="10" fill="#9c9a92">Data + deployment</text>
<rect x="480" y="680" width="12" height="12" rx="2" fill="#501313" stroke="#F09595" stroke-width="0.5"/>
<text x="500" y="691" font-family="system-ui,sans-serif" font-size="10" fill="#9c9a92">Security</text>
<line x1="620" y1="686" x2="660" y2="686" stroke="#EF9F27" stroke-width="1" stroke-dasharray="4 3" opacity="0.5"/>
<text x="670" y="691" font-family="system-ui,sans-serif" font-size="10" fill="#9c9a92">Feedback loop</text>
</svg>