<svg width="1280" height="320" viewBox="0 0 1280 320" xmlns="http://www.w3.org/2000/svg">
<rect width="1280" height="320" fill="#1a1a2e"/>
<circle cx="200" cy="160" r="180" fill="#534AB7" opacity="0.12"/>
<circle cx="1080" cy="160" r="200" fill="#1D9E75" opacity="0.08"/>
<g opacity="0.3">
<line x1="60" y1="40" x2="60" y2="280" stroke="#534AB7" stroke-width="0.5"/>
<line x1="140" y1="40" x2="140" y2="280" stroke="#534AB7" stroke-width="0.5"/>
<line x1="220" y1="40" x2="220" y2="280" stroke="#534AB7" stroke-width="0.5"/>
<line x1="300" y1="40" x2="300" y2="280" stroke="#534AB7" stroke-width="0.5"/>
<line x1="40" y1="80" x2="320" y2="80" stroke="#534AB7" stroke-width="0.5"/>
<line x1="40" y1="160" x2="320" y2="160" stroke="#534AB7" stroke-width="0.5"/>
<line x1="40" y1="240" x2="320" y2="240" stroke="#534AB7" stroke-width="0.5"/>
</g>
<g transform="translate(60,60)">
<rect x="0" y="0" width="80" height="36" rx="6" fill="#2a2a4a" stroke="#7F77DD" stroke-width="1"/>
<rect x="100" y="60" width="80" height="36" rx="6" fill="#2a2a4a" stroke="#7F77DD" stroke-width="1" opacity="0.7"/>
<rect x="180" y="120" width="80" height="36" rx="6" fill="#2a2a4a" stroke="#7F77DD" stroke-width="1" opacity="0.5"/>
<rect x="20" y="160" width="100" height="36" rx="6" fill="#2a2a4a" stroke="#7F77DD" stroke-width="1" opacity="0.6"/>
<rect x="160" y="200" width="80" height="36" rx="6" fill="#2a2a4a" stroke="#7F77DD" stroke-width="1" opacity="0.4"/>
<path d="M80 18 L100 78" fill="none" stroke="#5DCAA5" stroke-width="1.5" opacity="0.6"/>
<path d="M180 78 L180 120" fill="none" stroke="#5DCAA5" stroke-width="1.5" opacity="0.5"/>
<path d="M200 156 L80 178" fill="none" stroke="#5DCAA5" stroke-width="1.5" opacity="0.4"/>
<path d="M120 196 L160 218" fill="none" stroke="#5DCAA5" stroke-width="1.5" opacity="0.4"/>
<circle cx="80" cy="18" r="3.5" fill="#5DCAA5"/>
<circle cx="180" cy="78" r="2.5" fill="#5DCAA5" opacity="0.7"/>
<circle cx="200" cy="156" r="2.5" fill="#5DCAA5" opacity="0.6"/>
</g>
<g transform="translate(960,50)">
<rect x="40" y="20" width="90" height="32" rx="6" fill="#2a2a4a" stroke="#7F77DD" stroke-width="1" opacity="0.4"/>
<rect x="160" y="60" width="90" height="32" rx="6" fill="#2a2a4a" stroke="#7F77DD" stroke-width="1" opacity="0.35"/>
<rect x="20" y="100" width="110" height="32" rx="6" fill="#2a2a4a" stroke="#7F77DD" stroke-width="1" opacity="0.5"/>
<rect x="100" y="150" width="100" height="32" rx="6" fill="#2a2a4a" stroke="#7F77DD" stroke-width="1" opacity="0.3"/>
<rect x="180" y="190" width="80" height="32" rx="6" fill="#2a2a4a" stroke="#7F77DD" stroke-width="1" opacity="0.4"/>
<path d="M130 52 L160 76" fill="none" stroke="#5DCAA5" stroke-width="1" opacity="0.3"/>
<path d="M130 132 L140 150" fill="none" stroke="#5DCAA5" stroke-width="1" opacity="0.3"/>
</g>
<text x="640" y="125" text-anchor="middle" font-family="system-ui,-apple-system,BlinkMacSystemFont,Segoe UI,sans-serif" font-size="58" font-weight="600" fill="#e8e6df" letter-spacing="-1">AceForge</text>
<text x="640" y="168" text-anchor="middle" font-family="system-ui,-apple-system,BlinkMacSystemFont,Segoe UI,sans-serif" font-size="18" font-weight="400" fill="#9c9a92">Self-evolving skill engine for OpenClaw agents</text>
<rect x="440" y="195" width="400" height="40" rx="20" fill="#2a2a4a" opacity="0.6"/>
<text x="640" y="220" text-anchor="middle" font-family="system-ui,-apple-system,BlinkMacSystemFont,Segoe UI,sans-serif" font-size="13" font-weight="400" fill="#b4b2a9">Observe  ·  Generate  ·  Review  ·  Deploy  ·  Evolve</text>
<text x="640" y="275" text-anchor="middle" font-family="monospace" font-size="12" fill="#5DCAA5" opacity="0.6">v0.5.0  ·  MIT License  ·  TypeScript</text>
</svg>